<?xml version="1.0" encoding="UTF-8" standalone="no"?>
<svg width="50px" height="50px" viewBox="0 0 50 50" version="1.1" xmlns="http://www.w3.org/2000/svg" xmlns:xlink="http://www.w3.org/1999/xlink" xmlns:sketch="http://www.bohemiancoding.com/sketch/ns">
    <title>Slice 1</title>
    <description>Created with Sketch (http://www.bohemiancoding.com/sketch)</description>
    <defs></defs>
    <g id="Page 1" stroke="none" stroke-width="1" fill="none" fill-rule="evenodd">
        <g id="Slice 1">
            <g id="Page 1">
                <g id="logo">
                    <path d="M25,49.7354497 C50,49.7354451 50,38.6017908 50,24.8677249 C50,11.133659 50,3.75492187e-06 25,0 C2.77555756e-15,-3.75492199e-06 0,11.133659 0,24.8677249 C0,38.6017908 -1.33226763e-13,49.7354535 25,49.7354497 L25,49.7354497 Z M25,49.7354497" id="Oval 1" fill="#4A4A4A"></path>
                    <g id="Group" transform="translate(6.914894, 14.492063)">
                        <path d="M6.43061289,20.1058201 C2.87908328,20.1058201 0,17.2631838 0,13.7566138 C0,10.2500437 2.87908328,7.40740741 6.43061289,7.40740741 C7.21174563,7.40740741 7.96034893,7.54491925 8.65294492,7.79676226 C9.69009773,3.33103126 13.7397221,0 18.5773261,0 C24.2005813,0 28.7591299,4.50084086 28.7591299,10.0529101 C28.7591299,10.1214867 28.7584344,10.1899029 28.75705,10.2581515 C29.363544,10.0121795 30.0277488,9.87654321 30.7240394,9.87654321 C33.5849938,9.87654321 35.9042553,12.1664447 35.9042553,14.9911817 C35.9042553,17.8159186 33.5849938,20.1058201 30.7240394,20.1058201 L18.5773261,20.1058201 L6.9664973,20.1058201 C6.78980185,20.0984806 6.61107547,20.1058201 6.43061289,20.1058201 L6.43061289,20.1058201 Z M6.43061289,20.1058201" id="Oval 1" stroke="#FFFFFF" stroke-width="1.5" fill="#4A4A4A"></path>
                        <path d="M20.0851064,14.5079365 L20.0851064,15.5079365 L25.0851064,15.5079365 L25.0851064,14.5079365 L20.0851064,14.5079365 L20.0851064,14.5079365 Z M20.0851064,14.5079365" id="Rectangle 17" opacity="0.906818182" fill="#FFFFFF"></path>
                        <path d="M18.5216298,11.2930928 L13.7735829,14.1431904 L13.7735829,13.2100849 L17.5821767,10.9439717 L13.7735829,8.62072948 L13.7735829,7.70666698 L18.5216298,10.531374 L18.5216298,11.2930928 L18.5216298,11.2930928 Z M18.5216298,11.2930928" id=">" stroke="#FFFFFF" stroke-width="0.7" fill="#FFFFFF"></path>
                    </g>
                </g>
            </g>
        </g>
    </g>
</svg>